<?xml version="1.0" encoding="UTF-8" standalone="no"?>
<!-- Created with Inkscape (http://www.inkscape.org/) -->

<svg
   width="200"
   height="200"
   viewBox="0 0 52.916641 52.916643"
   version="1.1"
   id="svg1"
   xml:space="preserve"
   inkscape:version="1.3 (0e150ed6c4, 2023-07-21)"
   sodipodi:docname="grid.svg"
   xmlns:inkscape="http://www.inkscape.org/namespaces/inkscape"
   xmlns:sodipodi="http://sodipodi.sourceforge.net/DTD/sodipodi-0.dtd"
   xmlns="http://www.w3.org/2000/svg"
   xmlns:svg="http://www.w3.org/2000/svg"><sodipodi:namedview
     id="namedview1"
     pagecolor="#505050"
     bordercolor="#ffffff"
     borderopacity="1"
     inkscape:showpageshadow="0"
     inkscape:pageopacity="0"
     inkscape:pagecheckerboard="1"
     inkscape:deskcolor="#505050"
     inkscape:document-units="mm"
     inkscape:zoom="1.4627806"
     inkscape:cx="112.79887"
     inkscape:cy="89.897282"
     inkscape:window-width="1920"
     inkscape:window-height="1017"
     inkscape:window-x="1016"
     inkscape:window-y="-8"
     inkscape:window-maximized="1"
     inkscape:current-layer="layer1" /><defs
     id="defs1" /><g
     inkscape:label="Camada 1"
     inkscape:groupmode="layer"
     id="layer1"><path
       style="fill:#001623;fill-opacity:1;stroke:none;stroke-width:1;stroke-linecap:round;stroke-linejoin:round"
       id="path1"
       sodipodi:type="arc"
       sodipodi:cx="9.9944687"
       sodipodi:cy="9.9944687"
       sodipodi:rx="4.7028017"
       sodipodi:ry="4.7028017"
       sodipodi:start="1.7071595"
       sodipodi:end="1.6777389"
       sodipodi:arc-type="arc"
       d="M 9.3551653,14.653614 A 4.7028017,4.7028017 0 0 1 5.3307473,9.389451 4.7028017,4.7028017 0 0 1 10.565168,5.3264235 4.7028017,4.7028017 0 0 1 14.666585,10.530819 4.7028017,4.7028017 0 0 1 9.4924971,14.670404"
       sodipodi:open="true" /><path
       style="fill:#001623;fill-opacity:1;stroke:none;stroke-width:1;stroke-linecap:round;stroke-linejoin:round"
       id="path2"
       sodipodi:type="arc"
       sodipodi:cx="25.869469"
       sodipodi:cy="9.9944687"
       sodipodi:rx="4.7028017"
       sodipodi:ry="4.7028017"
       sodipodi:start="1.7071595"
       sodipodi:end="1.6777389"
       sodipodi:arc-type="arc"
       d="m 25.230165,14.653614 a 4.7028017,4.7028017 0 0 1 -4.024418,-5.264163 4.7028017,4.7028017 0 0 1 5.234421,-4.0630275 4.7028017,4.7028017 0 0 1 4.101417,5.2043955 4.7028017,4.7028017 0 0 1 -5.174088,4.139585"
       sodipodi:open="true" /><path
       style="fill:#001623;fill-opacity:1;stroke:none;stroke-width:1;stroke-linecap:round;stroke-linejoin:round"
       id="path3"
       sodipodi:type="arc"
       sodipodi:cx="41.744469"
       sodipodi:cy="9.9944687"
       sodipodi:rx="4.7028017"
       sodipodi:ry="4.7028017"
       sodipodi:start="1.7071595"
       sodipodi:end="1.6777389"
       sodipodi:arc-type="arc"
       d="m 41.105165,14.653614 a 4.7028017,4.7028017 0 0 1 -4.024418,-5.264163 4.7028017,4.7028017 0 0 1 5.234421,-4.0630275 4.7028017,4.7028017 0 0 1 4.101417,5.2043955 4.7028017,4.7028017 0 0 1 -5.174088,4.139585"
       sodipodi:open="true" /><path
       style="fill:#001623;fill-opacity:1;stroke:none;stroke-width:1;stroke-linecap:round;stroke-linejoin:round"
       id="path4"
       sodipodi:type="arc"
       sodipodi:cx="9.9944687"
       sodipodi:cy="25.869469"
       sodipodi:rx="4.7028017"
       sodipodi:ry="4.7028017"
       sodipodi:start="1.7071595"
       sodipodi:end="1.6777389"
       sodipodi:arc-type="arc"
       d="m 9.3551653,30.528614 a 4.7028017,4.7028017 0 0 1 -4.024418,-5.264163 4.7028017,4.7028017 0 0 1 5.2344207,-4.063028 4.7028017,4.7028017 0 0 1 4.101417,5.204396 4.7028017,4.7028017 0 0 1 -5.1740879,4.139585"
       sodipodi:open="true" /><path
       style="fill:#001623;fill-opacity:1;stroke:none;stroke-width:1;stroke-linecap:round;stroke-linejoin:round"
       id="path5"
       sodipodi:type="arc"
       sodipodi:cx="25.869469"
       sodipodi:cy="25.869469"
       sodipodi:rx="4.7028017"
       sodipodi:ry="4.7028017"
       sodipodi:start="1.7071595"
       sodipodi:end="1.6777389"
       sodipodi:arc-type="arc"
       d="m 25.230165,30.528614 a 4.7028017,4.7028017 0 0 1 -4.024418,-5.264163 4.7028017,4.7028017 0 0 1 5.234421,-4.063028 4.7028017,4.7028017 0 0 1 4.101417,5.204396 4.7028017,4.7028017 0 0 1 -5.174088,4.139585"
       sodipodi:open="true" /><path
       style="fill:#001623;fill-opacity:1;stroke:none;stroke-width:1;stroke-linecap:round;stroke-linejoin:round"
       id="path6"
       sodipodi:type="arc"
       sodipodi:cx="41.744469"
       sodipodi:cy="25.869469"
       sodipodi:rx="4.7028017"
       sodipodi:ry="4.7028017"
       sodipodi:start="1.7071595"
       sodipodi:end="1.6777389"
       sodipodi:arc-type="arc"
       d="m 41.105165,30.528614 a 4.7028017,4.7028017 0 0 1 -4.024418,-5.264163 4.7028017,4.7028017 0 0 1 5.234421,-4.063028 4.7028017,4.7028017 0 0 1 4.101417,5.204396 4.7028017,4.7028017 0 0 1 -5.174088,4.139585"
       sodipodi:open="true" /><path
       style="fill:#001623;fill-opacity:1;stroke:none;stroke-width:1;stroke-linecap:round;stroke-linejoin:round"
       id="path7"
       sodipodi:type="arc"
       sodipodi:cx="9.9944687"
       sodipodi:cy="41.744469"
       sodipodi:rx="4.7028017"
       sodipodi:ry="4.7028017"
       sodipodi:start="1.7071595"
       sodipodi:end="1.6777389"
       sodipodi:arc-type="arc"
       d="m 9.3551653,46.403614 a 4.7028017,4.7028017 0 0 1 -4.024418,-5.264163 4.7028017,4.7028017 0 0 1 5.2344207,-4.063028 4.7028017,4.7028017 0 0 1 4.101417,5.204396 4.7028017,4.7028017 0 0 1 -5.1740879,4.139585"
       sodipodi:open="true" /><path
       style="fill:#001623;fill-opacity:1;stroke:none;stroke-width:1;stroke-linecap:round;stroke-linejoin:round"
       id="path8"
       sodipodi:type="arc"
       sodipodi:cx="25.869469"
       sodipodi:cy="41.744469"
       sodipodi:rx="4.7028017"
       sodipodi:ry="4.7028017"
       sodipodi:start="1.7071595"
       sodipodi:end="1.6777389"
       sodipodi:arc-type="arc"
       d="m 25.230165,46.403614 a 4.7028017,4.7028017 0 0 1 -4.024418,-5.264163 4.7028017,4.7028017 0 0 1 5.234421,-4.063028 4.7028017,4.7028017 0 0 1 4.101417,5.204396 4.7028017,4.7028017 0 0 1 -5.174088,4.139585"
       sodipodi:open="true" /><path
       style="fill:#001623;fill-opacity:1;stroke:none;stroke-width:1;stroke-linecap:round;stroke-linejoin:round"
       id="path9"
       sodipodi:type="arc"
       sodipodi:cx="41.744469"
       sodipodi:cy="41.744469"
       sodipodi:rx="4.7028017"
       sodipodi:ry="4.7028017"
       sodipodi:start="1.7071595"
       sodipodi:end="1.6777389"
       sodipodi:arc-type="arc"
       d="m 41.105165,46.403614 a 4.7028017,4.7028017 0 0 1 -4.024418,-5.264163 4.7028017,4.7028017 0 0 1 5.234421,-4.063028 4.7028017,4.7028017 0 0 1 4.101417,5.204396 4.7028017,4.7028017 0 0 1 -5.174088,4.139585"
       sodipodi:open="true" /></g></svg>
